<?xml version="1.0" encoding="utf-8"?>
<!-- Generator: Adobe Illustrator 26.4.1, SVG Export Plug-In . SVG Version: 6.00 Build 0)  -->
<svg version="1.1" id="图层_1" xmlns="http://www.w3.org/2000/svg" xmlns:xlink="http://www.w3.org/1999/xlink" x="0px" y="0px"
	 viewBox="0 0 1024 1024" style="enable-background:new 0 0 1024 1024;" xml:space="preserve">
<style type="text/css">
	.st0{fill:url(#椭圆形_00000052068010804188444590000008909477136326245793_);}
	.st1{fill:#3F78D6;}
	.st2{fill-rule:evenodd;clip-rule:evenodd;fill:url(#SVGID_1_);}
	.st3{fill-rule:evenodd;clip-rule:evenodd;fill:url(#SVGID_00000162338208432846622710000012279193688048272820_);}
	.st4{fill-rule:evenodd;clip-rule:evenodd;fill:url(#路径_00000112630676643289363960000008392174886795542167_);}
	.st5{fill-rule:evenodd;clip-rule:evenodd;fill:url(#路径_00000102524937403811021140000016342577247846264194_);}
	.st6{fill-rule:evenodd;clip-rule:evenodd;fill:url(#路径_00000002368318018988585090000010437297166248108184_);}
	.st7{fill-rule:evenodd;clip-rule:evenodd;fill:url(#路径_00000085961049045868467370000007267449950013067967_);}
	.st8{fill-rule:evenodd;clip-rule:evenodd;fill:#4F8DF2;}
	.st9{fill-rule:evenodd;clip-rule:evenodd;fill:url(#路径_00000156564231441904419470000016025069330147345056_);}
	.st10{fill-rule:evenodd;clip-rule:evenodd;fill:url(#路径_00000134970400234441005530000006568747904424845983_);}
	.st11{fill-rule:evenodd;clip-rule:evenodd;fill:url(#路径_00000176030974037899373980000011347048972554267060_);}
	.st12{fill-rule:evenodd;clip-rule:evenodd;fill:url(#路径_00000051385026056168481890000000033764616300381617_);}
	.st13{fill-rule:evenodd;clip-rule:evenodd;fill:#8DB9FF;}
	.st14{fill:url(#路径_00000023282142786649410540000007120544910034473621_);}
	.st15{fill:url(#路径_00000060718130277310574420000005229987583583658114_);}
	.st16{fill:url(#路径_00000070812892998496462930000018088435354657279921_);}
	.st17{fill:url(#椭圆形_00000098902721161933270620000001990180296635284151_);}
	.st18{fill:url(#椭圆形备份_00000080889917310276722110000002515982007934124962_);fill-opacity:0.5625;}
	.st19{fill:url(#椭圆形备份-2_00000090975418689089323740000006107289901142578870_);fill-opacity:0.5625;}
	.st20{fill:#5D8BEA;stroke:#FFFFFF;stroke-miterlimit:10;}
	.st21{font-family:'Modak';}
	.st22{font-size:22px;}
</style>
<g>
	
		<radialGradient id="椭圆形_00000121961137796517897660000002261176157994240396_" cx="-446.4727" cy="1053.7773" r="0.7073" gradientTransform="matrix(-14.7056 557.8062 557.8022 14.7057 -593853 234002.5312)" gradientUnits="userSpaceOnUse">
		<stop  offset="0" style="stop-color:#0052D9;stop-opacity:0.1516"/>
		<stop  offset="1" style="stop-color:#0052D9;stop-opacity:0"/>
	</radialGradient>
	<path id="椭圆形" style="fill:url(#椭圆形_00000121961137796517897660000002261176157994240396_);" d="M932.6,719l-0.2,9.2
		l-0.7,9.2l-1.1,9.1l-1.6,9.1l-2,9l-2.5,9l-3.5,10.6l-4.1,10.5l-4.8,10.4l-5.4,10.3l-6.1,10.3l-6.5,9.8l-7.1,9.7l-7.7,9.6l-8.4,9.5
		l-9,9.4l-9.2,8.8l-9.9,8.7l-10.5,8.5l-11.1,8.3l-11.8,8.2l-11.9,7.6l-12.4,7.3l-12.8,7l-13.2,6.7l-13.7,6.3l-13.8,5.8l-14.1,5.5
		l-14.5,5.1l-14.8,4.8l-15.2,4.4l-15.2,4l-15.4,3.6l-15.7,3.2l-16,2.8l-16.2,2.4l-16.2,1.9l-16.3,1.5l-16.5,1.1l-16.6,0.7L512,998
		l-16.8-0.2l-16.6-0.7l-16.5-1.1l-16.3-1.5l-16.2-1.9l-16.2-2.4l-16-2.8l-15.7-3.2l-15.4-3.6l-15.2-4l-15.2-4.4l-14.8-4.8l-14.5-5.1
		l-14.1-5.5l-13.8-5.8l-13.7-6.3l-13.2-6.7l-12.8-7l-12.4-7.3l-11.9-7.6l-11.8-8.2l-11.1-8.3l-10.5-8.5l-9.9-8.7l-9.2-8.8l-9-9.4
		l-8.4-9.5l-7.7-9.6l-7.1-9.7l-6.5-9.8l-6.1-10.3l-5.4-10.3l-4.8-10.4l-4.1-10.5l-3.5-10.6l-2.5-9l-2-9l-1.6-9.1l-1.1-9.1l-0.7-9.2
		l-0.2-9.2l0.2-9.2l0.7-9.2l1.1-9.1l1.6-9.1l2-9l2.5-9l3.5-10.6l4.1-10.5l4.8-10.4l5.4-10.3l6.1-10.3l6.5-9.8l7.1-9.7l7.7-9.6
		l8.4-9.5l9-9.4l9.2-8.8l9.9-8.7l10.5-8.5l11.1-8.3l11.8-8.2l11.9-7.6l12.4-7.3l12.8-7l13.2-6.7l13.7-6.3l13.8-5.8l14.1-5.5
		l14.5-5.1l14.8-4.8l15.2-4.4l15.2-3.9l15.4-3.6l15.7-3.2l16-2.8l16.2-2.4l16.2-1.9l16.3-1.5l16.5-1.1l16.6-0.6L512,440l16.8,0.2
		l16.6,0.6l16.5,1.1l16.3,1.5l16.2,1.9l16.2,2.4l16,2.8l15.7,3.2l15.4,3.6l15.2,3.9l15.2,4.4l14.8,4.8l14.5,5.1l14.1,5.5l13.8,5.8
		l13.7,6.3l13.2,6.7l12.8,7l12.4,7.3l11.9,7.6l11.8,8.2l11.1,8.3l10.5,8.5l9.9,8.7l9.2,8.8l9,9.4l8.4,9.5l7.7,9.6l7.1,9.7l6.5,9.8
		l6.1,10.3l5.4,10.3l4.8,10.4l4.1,10.5l3.5,10.6l2.5,9l2,9l1.6,9.1l1.1,9.1l0.7,9.2L932.6,719z"/>
	<g>
		<path class="st1" d="M229.8,537h10.4v54.7l-0.2,1.5l-0.5,1.2l-0.8,1.1l-1.1,0.8l-1.2,0.5L235,597l0,0l-1.4-0.2l-1.2-0.5l-1.1-0.8
			l-0.8-1.1l-0.5-1.2l-0.2-1.5V537z"/>
		
			<linearGradient id="SVGID_1_" gradientUnits="userSpaceOnUse" x1="-428.0518" y1="1052.6625" x2="-428.0518" y2="1051.6625" gradientTransform="matrix(24.23 0 0 -80 10613.5781 84720)">
			<stop  offset="0" style="stop-color:#72A0E8"/>
			<stop  offset="0.994" style="stop-color:#3981F7"/>
		</linearGradient>
		<path class="st2" d="M229.8,507l24.2,63.3L229.8,587V507z"/>
		
			<linearGradient id="SVGID_00000094583154113241930040000002262858442778465440_" gradientUnits="userSpaceOnUse" x1="-424.9786" y1="1052.6625" x2="-424.9786" y2="1051.6625" gradientTransform="matrix(20.77 0 0 -80 9046.1924 84720)">
			<stop  offset="1.276190e-02" style="stop-color:#B7D2FF"/>
			<stop  offset="1" style="stop-color:#93BBFF"/>
		</linearGradient>
		<path style="fill-rule:evenodd;clip-rule:evenodd;fill:url(#SVGID_00000094583154113241930040000002262858442778465440_);" d="
			M229.8,507L209,577l20.8,10V507z"/>
	</g>
	<g>
		<path id="路径" class="st1" d="M807,495h8v42.8l-0.3,1.6l-0.8,1.3l-1.3,0.9L811,542l0,0l-1.6-0.3l-1.3-0.9l-0.8-1.3l-0.3-1.6
			V495z"/>
		
			<linearGradient id="路径_00000127030896967717423470000008101410655168616866_" gradientUnits="userSpaceOnUse" x1="-422.9737" y1="1052.5646" x2="-422.9737" y2="1051.5646" gradientTransform="matrix(19 0 0 -62 8853 65731)">
			<stop  offset="0" style="stop-color:#72A0E8"/>
			<stop  offset="0.994" style="stop-color:#3981F7"/>
		</linearGradient>
		
			<path id="路径_00000080925839838770054670000005998030000530017930_" style="fill-rule:evenodd;clip-rule:evenodd;fill:url(#路径_00000127030896967717423470000008101410655168616866_);" d="
			M807,472l19,49.1L807,534V472z"/>
		<g>
			
				<linearGradient id="路径_00000129173190107659779840000001992789753669843618_" gradientUnits="userSpaceOnUse" x1="-418.5625" y1="1052.5646" x2="-418.5625" y2="1051.5646" gradientTransform="matrix(16 0 0 -62 7496 65731)">
				<stop  offset="1.276190e-02" style="stop-color:#B7D2FF"/>
				<stop  offset="1" style="stop-color:#93BBFF"/>
			</linearGradient>
			
				<path id="路径_00000103225907803180902620000002142581035861491633_" style="fill-rule:evenodd;clip-rule:evenodd;fill:url(#路径_00000129173190107659779840000001992789753669843618_);" d="
				M807,472l-16,54.2l16,7.8V472z"/>
		</g>
	</g>
	<g>
		<path id="路径_00000006681440753656570680000005547130087079811239_" class="st1" d="M281,463h8v41l-0.3,1.6l-0.9,1.3l-1.3,0.9
			L285,508l0,0l-1.6-0.3l-1.3-0.9l-0.9-1.3L281,504V463z"/>
		
			<linearGradient id="路径_00000135651131376834963320000008640474081503253170_" gradientUnits="userSpaceOnUse" x1="-421.6667" y1="1052.55" x2="-421.6667" y2="1051.55" gradientTransform="matrix(18 0 0 -60 7880 63593)">
			<stop  offset="0" style="stop-color:#72A0E8"/>
			<stop  offset="0.994" style="stop-color:#3981F7"/>
		</linearGradient>
		
			<path id="路径_00000047031471243821030810000004678748672822178693_" style="fill-rule:evenodd;clip-rule:evenodd;fill:url(#路径_00000135651131376834963320000008640474081503253170_);" d="
			M281,440l18,47.5L281,500V440z"/>
		<g>
			
				<linearGradient id="路径_00000120538938739597332590000004895208773636370565_" gradientUnits="userSpaceOnUse" x1="-418.5625" y1="1052.55" x2="-418.5625" y2="1051.55" gradientTransform="matrix(16 0 0 -60 6970 63593)">
				<stop  offset="1.276190e-02" style="stop-color:#B7D2FF"/>
				<stop  offset="1" style="stop-color:#93BBFF"/>
			</linearGradient>
			
				<path id="路径_00000124152446685246634850000008027891803731264941_" style="fill-rule:evenodd;clip-rule:evenodd;fill:url(#路径_00000120538938739597332590000004895208773636370565_);" d="
				M281,440l-16,52.5l16,7.5V440z"/>
		</g>
	</g>
</g>
<g>
	<path id="路径_00000155137396063247203010000002801915320183690126_" class="st8" d="M481.6,551.8l124.3,80.8l1.6,0.8l1.6,0.5
		l1.7,0.1l1.7-0.2l1.6-0.5l1.5-0.8l1.3-1.1l1.1-1.3l0.9-1.6l69.1-169.9l0.7-2.2l0.3-2.1v-2.2l-0.3-2.1l-0.6-2l-0.9-2l-1.2-1.8
		l-1.5-1.6l-1.8-1.4l-106.2-70.8l-1.5-0.8l-1.5-0.5l-1.6-0.2l-2.4,0.2l-2.2,0.9l-1.3,0.9l-1.1,1.1l-1,1.4l-87,159.2l-1,2.3l-0.6,2.3
		l-0.2,2.3l0.2,2.4l0.6,2.2l0.9,2.2l1.3,2l1.6,1.8L481.6,551.8"/>
	
		<linearGradient id="路径_00000011031841901297200820000017826604921804540288_" gradientUnits="userSpaceOnUse" x1="-444.6522" y1="1052.5631" x2="-444.1436" y2="1052.2555" gradientTransform="matrix(213.96 0 0 -265 95673.1328 279384)">
		<stop  offset="0" style="stop-color:#73A8FF"/>
		<stop  offset="0.9882" style="stop-color:#C9DDFF"/>
	</linearGradient>
	
		<path id="路径_00000119812540582706503240000017919971578039327380_" style="fill-rule:evenodd;clip-rule:evenodd;fill:url(#路径_00000011031841901297200820000017826604921804540288_);" d="
		M486.6,548.8l124.3,80.8l1.6,0.8l1.6,0.5l1.7,0.1l1.7-0.2l1.6-0.5l1.5-0.8l1.3-1.1l1.1-1.3l0.9-1.6l69.1-169.9l0.7-2.2l0.3-2.1
		v-2.2l-0.3-2.1l-0.6-2l-0.9-2l-1.2-1.8l-1.5-1.6l-1.8-1.4l-106.2-70.8l-1.5-0.8l-1.5-0.5l-1.6-0.2l-2.4,0.2l-2.2,0.9l-1.3,0.9
		l-1.1,1.1l-1,1.4l-87,159.2l-1,2.3l-0.6,2.3l-0.2,2.3l0.2,2.4l0.6,2.2l0.9,2.2l1.3,2l1.6,1.8L486.6,548.8"/>
	
		<linearGradient id="路径_00000181085526444450333550000010395911653248116112_" gradientUnits="userSpaceOnUse" x1="-443.8393" y1="1052.8911" x2="-443.8393" y2="1051.8911" gradientTransform="matrix(168 0 0 -248 75130 261482)">
		<stop  offset="0" style="stop-color:#649DFF"/>
		<stop  offset="1" style="stop-color:#85B3FF"/>
	</linearGradient>
	
		<path id="路径_00000129205016669921590050000016846953693779032463_" style="fill-rule:evenodd;clip-rule:evenodd;fill:url(#路径_00000181085526444450333550000010395911653248116112_);" d="
		M487.5,547.8L587,613l62-72.5l-72.7-173.7l-0.6-1l-0.9-0.6l-1-0.2l-1,0.1l-0.9,0.5l-0.7,0.9l-88.3,162.3l-1,2.3l-0.6,2.3l-0.2,2.3
		l0.2,2.3l0.6,2.2l0.9,2.2l1.3,2l1.6,1.8L487.5,547.8"/>
	
		<linearGradient id="路径_00000110429574191970980030000009700310829214254005_" gradientUnits="userSpaceOnUse" x1="-445.231" y1="1052.8131" x2="-444.8262" y2="1052.0311" gradientTransform="matrix(302.92 0 0 -283 135303.2969 298296)">
		<stop  offset="0" style="stop-color:#6298ED"/>
		<stop  offset="1" style="stop-color:#B0CEFF"/>
	</linearGradient>
	
		<path id="路径_00000048501475413849564810000010878642444635080068_" style="fill-rule:evenodd;clip-rule:evenodd;fill:url(#路径_00000110429574191970980030000009700310829214254005_);" d="
		M506.4,324.6l-151.1,46.1l-2.8,1.2l-2.4,1.6l-2,2l-1.5,2.4l-1,2.6l-0.5,2.8l0,2.9l0.6,2.8l1.2,2.8l115.8,206.2l1.6,2.3l1.8,2
		l2.1,1.6l2.3,1.3l2.4,0.9l2.6,0.6l2.7,0.2l2.7-0.3l2.7-0.7l156.6-54.8l2.2-1.1l1.8-1.4l1.5-1.7l1.2-2l0.8-2.1l0.3-2.2l-0.1-2.3
		l-0.5-2.2l-1.1-2.2L523,331l-1.3-1.8l-1.5-1.5l-1.7-1.3l-1.8-1l-1.9-0.7l-2.1-0.5l-2.1-0.2l-2.1,0.1L506.4,324.6"/>
	
		<linearGradient id="路径_00000067914927691967692650000000635908083168308371_" gradientUnits="userSpaceOnUse" x1="-445.2231" y1="1052.7954" x2="-444.8064" y2="1052.0104" gradientTransform="matrix(300.94 0 0 -283 134420.2031 298288)">
		<stop  offset="0" style="stop-color:#9FC3FF"/>
		<stop  offset="1" style="stop-color:#EDF4FF"/>
	</linearGradient>
	
		<path id="路径_00000146501294280208921980000004865824055266727053_" style="fill-rule:evenodd;clip-rule:evenodd;fill:url(#路径_00000067914927691967692650000000635908083168308371_);" d="
		M509.7,316.7L355,367.9l-2.2,1l-1.8,1.3l-1.5,1.6l-1.2,1.9l-0.8,2L347,378l0,2.2l0.5,2.2l1,2.2l115,202.5l2.1,3.1l2.5,2.6l2.8,2.2
		l3.1,1.7l3.3,1.2l3.5,0.7l3.6,0.2l3.6-0.4l3.6-1l150.6-53.1l1.6-0.8l1.4-1l1.1-1.2l0.9-1.4l0.6-1.5l0.3-1.7l0-1.7l-0.4-1.7
		l-0.7-1.7l-120-208.7l-1.3-1.9l-1.5-1.6l-1.7-1.4l-1.9-1.1l-2-0.8l-2.1-0.5l-2.2-0.1l-2.2,0.2L509.7,316.7"/>
	<path id="路径_00000152238792634865284040000014987982070637982630_" class="st13" d="M440.2,363.4L386,380.7l-1.6,0.8l-1.2,1.1
		l-0.8,1.4l-0.4,1.6l0.1,1.7l0.6,1.6l34,58.7l1.2,1.6l1.5,1.2l1.8,0.9l1.9,0.5l2,0l2-0.4l52.8-17.8l1.6-0.8l1.2-1.1l0.8-1.4l0.4-1.6
		l-0.1-1.6l-0.6-1.6l-32.7-58.1l-1.2-1.7l-1.5-1.3l-1.8-0.9l-1.9-0.5l-2-0.1L440.2,363.4"/>
	
		<linearGradient id="路径_00000183231965278644691040000007386850226283976330_" gradientUnits="userSpaceOnUse" x1="-440.3997" y1="1052.6667" x2="-439.6172" y2="1051.7893" gradientTransform="matrix(69 0 0 -105 30854 110997)">
		<stop  offset="0" style="stop-color:#91BBFF"/>
		<stop  offset="1" style="stop-color:#DBE9FF"/>
	</linearGradient>
	
		<path id="路径_00000078756747099123190620000007156986135009038749_" style="fill:url(#路径_00000183231965278644691040000007386850226283976330_);" d="
		M461.2,459.9l1.6-0.7l1.6-0.2l1.6,0.1l1.5,0.5l1.3,0.9l1.2,1.2l0.2,0.4l55.7,92l0.7,1.6l0.2,1.6l-0.2,1.6l-0.6,1.5l-1,1.3l-1.4,1.1
		l-1.6,0.7l-1.6,0.2l-1.6-0.2l-1.5-0.5l-1.3-0.9l-1.2-1.2l-0.2-0.4l-55.7-92l-0.7-1.6l-0.2-1.6l0.2-1.6l0.6-1.6l1-1.3L461.2,459.9z"
		/>
	
		<linearGradient id="路径_00000140730774619466676610000004365656090524328354_" gradientUnits="userSpaceOnUse" x1="-440.3997" y1="1052.6667" x2="-439.6172" y2="1051.7893" gradientTransform="matrix(69 0 0 -105 30878 110988)">
		<stop  offset="1.249044e-02" style="stop-color:#98BFFF"/>
		<stop  offset="0.9873" style="stop-color:#D4E2FF"/>
	</linearGradient>
	
		<path id="路径_00000003083343303750600580000001031499321122361500_" style="fill:url(#路径_00000140730774619466676610000004365656090524328354_);" d="
		M485.2,450.9l1.6-0.7l1.6-0.2l1.6,0.1l1.5,0.5l1.3,0.9l1.2,1.2l0.2,0.4l55.7,92l0.7,1.6l0.2,1.6l-0.2,1.6l-0.6,1.5l-1,1.3l-1.4,1.1
		l-1.6,0.7l-1.6,0.2l-1.6-0.2l-1.5-0.5l-1.3-0.9l-1.2-1.2l-0.2-0.4l-55.7-92l-0.7-1.6l-0.2-1.6l0.2-1.6l0.6-1.6l1-1.3L485.2,450.9z"
		/>
	
		<linearGradient id="路径_00000053532065197722475000000004834108127908979856_" gradientUnits="userSpaceOnUse" x1="-444.0245" y1="1052.808" x2="-443.2555" y2="1051.9305" gradientTransform="matrix(157 0 0 -232 70189 244598)">
		<stop  offset="0" style="stop-color:#7EAFFF"/>
		<stop  offset="1" style="stop-color:#F5F9FF"/>
	</linearGradient>
	
		<path id="路径_00000082339635861450618840000006931357211445239472_" style="fill:url(#路径_00000053532065197722475000000004834108127908979856_);" d="
		M477.1,329L614,554.5l-18.5,6.5L457,335.3L477.1,329z"/>
</g>
<radialGradient id="椭圆形_00000107562816578787814470000016435209506915641992_" cx="-440.4638" cy="1052.1198" r="0.6617" gradientTransform="matrix(71 0 0 -71 32002 75069)" gradientUnits="userSpaceOnUse">
	<stop  offset="0" style="stop-color:#F2F7FF"/>
	<stop  offset="1" style="stop-color:#99C0FF"/>
</radialGradient>
<path id="椭圆形_00000153681995336514825470000001336272302995681688_" style="fill:url(#椭圆形_00000107562816578787814470000016435209506915641992_);" d="
	M783,368.5c0,19.6-15.9,35.5-35.5,35.5S712,388.1,712,368.5s15.9-35.5,35.5-35.5S783,348.9,783,368.5z"/>
<radialGradient id="椭圆形备份_00000115476370506941521260000002373966970108105119_" cx="-435.298" cy="1051.8077" r="0.6617" gradientTransform="matrix(39 0 0 -39 17334 41604)" gradientUnits="userSpaceOnUse">
	<stop  offset="0" style="stop-color:#F2F7FF"/>
	<stop  offset="1" style="stop-color:#99C0FF"/>
</radialGradient>
<path id="椭圆形备份" style="fill:url(#椭圆形备份_00000115476370506941521260000002373966970108105119_);fill-opacity:0.5625;" d="
	M387,583.5c0,10.8-8.7,19.5-19.5,19.5s-19.5-8.7-19.5-19.5s8.7-19.5,19.5-19.5S387,572.7,387,583.5z"/>
<radialGradient id="椭圆形备份-2_00000131338078568571903520000015730836550625365950_" cx="-427.3248" cy="1051.326" r="0.6617" gradientTransform="matrix(23 0 0 -23 10156 24733)" gradientUnits="userSpaceOnUse">
	<stop  offset="0" style="stop-color:#F2F7FF"/>
	<stop  offset="1" style="stop-color:#99C0FF"/>
</radialGradient>
<path id="椭圆形备份-2" style="fill:url(#椭圆形备份-2_00000131338078568571903520000015730836550625365950_);fill-opacity:0.5625;" d="
	M345,552.5c0,6.3-5.1,11.5-11.5,11.5s-11.5-5.2-11.5-11.5s5.1-11.5,11.5-11.5S345,546.2,345,552.5z"/>
<text transform="matrix(0.515 0.8572 -0.8572 0.515 496.7162 334.7935)" class="st20 st21 st22">Company Autocomplete</text>
</svg>
